<svg width="24" height="24" viewBox="0 0 24 24" fill="none" xmlns="http://www.w3.org/2000/svg">
<g clip-path="url(#clip0_1_2354)">
<path d="M16.3134 7.27258C16.0542 7.27258 15.8438 7.48206 15.8438 7.74115C15.8438 8.00006 16.0542 8.2099 16.3134 8.2099C16.5732 8.2099 16.7831 8.00006 16.7831 7.74115C16.7831 7.48206 16.5732 7.27258 16.3134 7.27258Z" fill="#383874"/>
<path d="M7.77979 15.7894C7.52 15.7894 7.31012 15.9994 7.31012 16.2581C7.31012 16.5174 7.52 16.7269 7.77979 16.7269C8.03902 16.7269 8.24945 16.5174 8.24945 16.2581C8.24945 15.9994 8.03902 15.7894 7.77979 15.7894Z" fill="#383874"/>
<path d="M23.4861 2.88374C23.3276 2.84694 23.161 2.89473 23.0465 3.01009L21.0994 4.96877H20.1659L19.1383 3.90621V2.96156L21.0576 1.01753C21.1711 0.902541 21.2174 0.737197 21.1797 0.579909C21.1423 0.422805 21.0264 0.296096 20.873 0.24446C20.3909 0.0822284 19.8863 1.39536e-05 19.3732 1.39536e-05C17.8435 1.39536e-05 16.4537 0.711929 15.5603 1.9532C14.724 3.11519 14.4663 4.5392 14.8356 5.90206L11.376 9.35488L5.6123 3.58925V2.45766C5.6123 2.29305 5.5257 2.14034 5.38425 2.05574L2.06337 0.0668475C1.87844 -0.0439314 1.64196 -0.0148176 1.48968 0.137343L0.161402 1.46284C0.0091273 1.61501 -0.0200434 1.85103 0.0907687 2.0356L2.08319 5.34999C2.16795 5.49117 2.32077 5.57741 2.48571 5.57759L3.61914 5.57796L9.38339 11.3436L5.93703 14.7832C4.57151 14.4148 3.14397 14.6724 1.97916 15.5076C0.736194 16.3988 0.0234375 17.7854 0.0234375 19.3122C0.0234375 19.8241 0.105813 20.3278 0.268362 20.8089C0.320282 20.9629 0.448523 21.0791 0.607036 21.1157C0.765732 21.1526 0.932134 21.1048 1.0468 20.9894L2.99372 19.0309H3.93232L5.00173 20.0982V21.035L3.0394 22.9781C2.92382 23.0926 2.87593 23.2586 2.91281 23.417C2.9495 23.5752 3.066 23.7032 3.22029 23.755C3.70225 23.9173 4.20696 23.9995 4.71993 23.9995C6.24965 23.9995 7.63884 23.2879 8.53194 22.0474C9.36872 20.8849 9.62685 19.4603 9.25772 18.0974L12.0256 15.3349L12.6597 16.0223L12.3687 16.3125C12.1853 16.4956 12.1853 16.7924 12.3687 16.9755C12.5522 17.1585 12.8494 17.1585 13.033 16.9755L13.2965 16.7126L19.2455 23.162C19.2499 23.1667 19.2545 23.1713 19.2591 23.1759C20.3598 24.2745 22.1433 24.2749 23.2446 23.1757C24.3428 22.0791 24.3428 20.2947 23.2446 19.1981C23.2399 19.1933 23.2349 19.1887 23.23 19.1842L16.7579 13.2581L17.0184 12.9981C17.2019 12.8152 17.2019 12.5184 17.0184 12.3353C16.835 12.1522 16.5377 12.1522 16.3541 12.3353L16.0651 12.6239L15.3751 11.9918L18.1564 9.2159C18.5518 9.32137 18.9598 9.37484 19.3732 9.37484C21.963 9.37484 24.0697 7.27205 24.0697 4.68752C24.0697 4.17537 23.9873 3.67183 23.8247 3.19063C23.7728 3.03664 23.6446 2.92037 23.4861 2.88374ZM4.14642 4.77815C4.05836 4.69008 3.93892 4.64522 3.81417 4.64522L2.75191 4.64485L1.08496 1.86714L1.89458 1.0591L4.67296 2.72316V3.78334C4.67296 3.90749 4.72231 4.02651 4.81019 4.1144L10.7119 10.0179L10.0475 10.6807L4.14642 4.77815ZM16.093 13.9217L22.5871 19.8677C23.3125 20.5994 23.3103 21.7841 22.5803 22.513C21.8487 23.2433 20.6642 23.2455 19.9296 22.5194L13.9612 16.049L16.093 13.9217ZM15.4003 13.2873L13.3244 15.3587L12.6903 14.6713L14.7103 12.6552L15.4003 13.2873ZM19.3732 8.43734C18.9624 8.43734 18.5584 8.3716 18.1728 8.24196C18.0038 8.18538 17.817 8.22896 17.6908 8.35476C15.3362 10.7047 10.2627 15.7682 8.39452 17.6329C8.2683 17.7589 8.22445 17.9453 8.28151 18.1141C8.67192 19.2711 8.48516 20.5053 7.76891 21.5005C7.05469 22.4927 5.94326 23.062 4.71993 23.062C4.58251 23.062 4.44583 23.0545 4.31044 23.04L5.80218 21.5627C5.89098 21.4748 5.94106 21.3551 5.94106 21.23V19.904C5.94106 19.7796 5.89153 19.6604 5.80346 19.5725L4.45886 18.2306C4.3708 18.1427 4.25136 18.0932 4.12679 18.0932H2.79814C2.67284 18.0932 2.55285 18.1432 2.46461 18.2318L0.984604 19.7207C0.969927 19.5855 0.962589 19.4491 0.962589 19.312C0.962589 18.0908 1.53279 16.9818 2.52717 16.2689C3.52411 15.5541 4.76084 15.3675 5.92033 15.7573C6.0893 15.8143 6.27607 15.7705 6.40229 15.6446C6.42816 15.6189 15.692 6.373 15.6986 6.36641C15.8248 6.24044 15.8685 6.05422 15.8116 5.88539C15.421 4.72835 15.6074 3.49458 16.3231 2.50014C17.0379 1.50697 18.1495 0.937515 19.373 0.937515C19.5146 0.937515 19.6553 0.945388 19.7948 0.960769L18.334 2.44045C18.2474 2.52815 18.199 2.64626 18.199 2.7693V4.09535C18.199 4.21694 18.2462 4.33357 18.3307 4.42092L19.6284 5.7629C19.7168 5.85445 19.8388 5.90608 19.9663 5.90608H21.295C21.4201 5.90608 21.5401 5.85628 21.6283 5.76747L23.1083 4.27883C23.123 4.41396 23.1303 4.55037 23.1303 4.68752C23.1303 6.75515 21.4449 8.43734 19.3732 8.43734Z" fill="#383874"/>
<path d="M14.6531 8.73541L8.7758 14.6012C8.59252 14.7841 8.59252 15.0809 8.7758 15.264C8.95926 15.4471 9.25666 15.4471 9.44012 15.264L15.3174 9.39825C15.5008 9.21533 15.5008 8.91852 15.3174 8.73541C15.1339 8.55231 14.8365 8.55231 14.6531 8.73541Z" fill="#383874"/>
<path d="M20.5881 21.1875C20.7716 21.3701 21.069 21.3701 21.2524 21.1864C21.4355 21.0031 21.435 20.7063 21.2513 20.5236L17.0179 16.312C16.8342 16.1292 16.5367 16.1298 16.3538 16.3131C16.1705 16.4965 16.171 16.7932 16.3547 16.9759L20.5881 21.1875Z" fill="#383874"/>
</g>
<defs>
<clipPath id="clip0_1_2354">
<rect width="24" height="24" fill="white"/>
</clipPath>
</defs>
</svg>
