<svg width="16" height="16" viewBox="0 0 16 16" fill="none" xmlns="http://www.w3.org/2000/svg">
<path d="M15.2319 13.3737L11.6747 12.9451C11.5569 12.9308 11.5069 12.7862 11.5908 12.7022L12.6497 11.6433L8.61402 7.6076L6.79616 9.42367C6.68366 9.53617 6.5033 9.53439 6.39259 9.42367L0.647945 3.67724C0.621359 3.65039 0.606445 3.61413 0.606445 3.57635C0.606445 3.53856 0.621359 3.50231 0.647945 3.47546L1.45152 2.66831C1.50687 2.61296 1.59795 2.61296 1.6533 2.66831L6.59437 7.6076L8.41045 5.79153C8.52295 5.68081 8.7033 5.68081 8.81402 5.79153L13.6604 10.6344L14.7194 9.57546C14.7383 9.55657 14.7622 9.5434 14.7883 9.53742C14.8144 9.53145 14.8417 9.53291 14.867 9.54166C14.8923 9.5504 14.9146 9.56607 14.9315 9.58688C14.9483 9.6077 14.959 9.63282 14.9622 9.65939L15.3908 13.2165C15.4033 13.3076 15.3247 13.3862 15.2319 13.3737Z" fill="#FF708B"/>
</svg>
