<svg width="24" height="24" viewBox="0 0 24 24" fill="none" xmlns="http://www.w3.org/2000/svg">
<path d="M23.625 6V5.25H22.125V0.375H21.375V12.75C21.375 16.2653 18.5152 19.125 15 19.125H7.125V17.625H8.25V16.875H7.125V15.375H14.25C16.1108 15.375 17.625 13.8608 17.625 12V0.375H16.875V5.25H9C5.07113 5.25 1.875 8.44613 1.875 12.375V14.625H0.375V15.375H1.875V19.125H0.375V19.875H1.875V23.625H2.625V12.375C2.625 8.85975 5.48475 6 9 6H16.875V7.5H16.5V8.25H16.875V9.75H9.75C7.88925 9.75 6.375 11.2642 6.375 13.125V23.625H7.125V19.875H15C16.2409 19.875 17.4079 19.5548 18.4249 18.9945C18.393 19.1584 18.375 19.3271 18.375 19.5C18.375 20.3149 18.6671 21.1046 19.1974 21.7234L20.7154 23.4941C20.7866 23.5774 20.8905 23.625 21 23.625C21.1095 23.625 21.2134 23.5774 21.2846 23.4941L22.8026 21.7234C23.3329 21.1046 23.625 20.3149 23.625 19.5C23.625 18.0525 22.4475 16.875 21 16.875C20.9295 16.875 20.8601 16.8802 20.7908 16.8855C21.627 15.7181 22.125 14.2924 22.125 12.75V10.5H23.625V9.75H22.125V6H23.625ZM9.75 10.5H16.875V12C16.875 13.4475 15.6975 14.625 14.25 14.625H7.125V13.125C7.125 11.6775 8.3025 10.5 9.75 10.5ZM22.875 19.5C22.875 20.136 22.647 20.7521 22.2334 21.2351L21 22.6736L19.7666 21.2351C19.353 20.7521 19.125 20.136 19.125 19.5C19.125 18.4661 19.9661 17.625 21 17.625C22.0339 17.625 22.875 18.4661 22.875 19.5Z" fill="#383874"/>
</svg>
